<svg width="160" height="32" viewBox="0 0 160 32" fill="none" xmlns="http://www.w3.org/2000/svg">
<path d="M15.3869 1.52977C16.5662 1.40751 17.87 1.67097 18.9455 2.15136C19.0377 2.19244 19.1291 2.23544 19.2195 2.28035C19.31 2.32531 19.3995 2.37214 19.488 2.42085C19.5765 2.4696 19.6639 2.52019 19.7503 2.57262C19.8366 2.62505 19.9219 2.67929 20.006 2.73536C20.09 2.79139 20.1729 2.84918 20.2546 2.90873C20.3362 2.96829 20.4166 3.02954 20.4957 3.0925C20.5748 3.15546 20.6525 3.22009 20.7289 3.28638C20.8053 3.35263 20.8802 3.42047 20.9538 3.48989C21.0273 3.55932 21.0993 3.63027 21.1699 3.70276C21.2404 3.77524 21.3094 3.84918 21.3768 3.92457C21.4443 3.99996 21.5101 4.07676 21.5743 4.15498C21.6385 4.23315 21.701 4.31267 21.7619 4.39352C21.8228 4.47436 21.882 4.55647 21.9394 4.63984C21.9968 4.72316 22.0525 4.80767 22.1063 4.89336C22.1602 4.97909 22.2123 5.0659 22.2625 5.1538C22.3127 5.24173 22.3611 5.33067 22.4076 5.42062C22.6244 5.84548 22.7745 6.28707 22.9455 6.73058C23.5432 6.94153 24.1331 7.06083 24.7125 7.34299C26.101 8.01928 27.2162 9.19037 27.7157 10.6703C27.7298 10.7125 27.7435 10.7549 27.7566 10.7975C27.7697 10.8401 27.7823 10.8829 27.7944 10.9258C27.8065 10.9687 27.818 11.0117 27.8291 11.0549C27.8401 11.0981 27.8506 11.1414 27.8606 11.1848C27.8706 11.2283 27.88 11.2718 27.8889 11.3155C27.8979 11.3591 27.9062 11.4029 27.9141 11.4468C27.9219 11.4907 27.9292 11.5346 27.936 11.5787C27.9428 11.6227 27.9491 11.6669 27.9548 11.7111C27.9605 11.7553 27.9656 11.7996 27.9703 11.8439C27.9749 11.8882 27.979 11.9326 27.9826 11.9771C27.9861 12.0215 27.9891 12.066 27.9916 12.1105C27.9941 12.155 27.996 12.1995 27.9974 12.2441C27.9988 12.2887 27.9996 12.3332 27.9999 12.3778C28.0002 12.4224 27.9999 12.4669 27.9992 12.5115C27.9984 12.5561 27.997 12.6007 27.9952 12.6452C27.9933 12.6897 27.9909 12.7342 27.988 12.7787C27.985 12.8232 27.9815 12.8677 27.9774 12.912C27.9734 12.9564 27.9689 13.0008 27.9637 13.045C27.9586 13.0893 27.9529 13.1335 27.9468 13.1777C27.9406 13.2218 27.9338 13.2659 27.9266 13.3099C27.9193 13.3539 27.9115 13.3978 27.9032 13.4415C27.8948 13.4853 27.886 13.529 27.8766 13.5726C27.8672 13.6161 27.8572 13.6596 27.8468 13.7029C27.8363 13.7462 27.8254 13.7894 27.8139 13.8325C27.8023 13.8755 27.7903 13.9185 27.7778 13.9612C27.7652 14.0039 27.7522 14.0466 27.7386 14.089C27.725 14.1315 27.7109 14.1737 27.6962 14.2158C27.6816 14.2579 27.6665 14.2998 27.6509 14.3415C27.6353 14.3833 27.6191 14.4248 27.6025 14.4661C27.5858 14.5074 27.5687 14.5485 27.551 14.5895C27.5334 14.6303 27.5152 14.671 27.4966 14.7115C27.478 14.752 27.4589 14.7922 27.4392 14.8322C27.4191 14.8728 27.3986 14.9131 27.3775 14.9531C27.3565 14.9932 27.3349 15.033 27.3129 15.0725C27.2909 15.1121 27.2684 15.1513 27.2454 15.1903C27.2224 15.2292 27.1989 15.2679 27.1749 15.3064C27.151 15.3447 27.1266 15.3828 27.1017 15.4206C27.0769 15.4584 27.0515 15.4959 27.0257 15.533C27 15.5702 26.9737 15.6071 26.947 15.6436C26.9203 15.6801 26.8932 15.7163 26.8657 15.7521C26.8381 15.788 26.8101 15.8235 26.7816 15.8586C26.7532 15.8938 26.7243 15.9286 26.695 15.9631C26.6657 15.9975 26.636 16.0316 26.6059 16.0653C26.5758 16.099 26.5452 16.1324 26.5143 16.1653C26.4833 16.1983 26.452 16.2308 26.4202 16.2631C26.3885 16.2952 26.3564 16.327 26.3238 16.3584C26.2913 16.3898 26.2584 16.4208 26.2252 16.4514C26.1918 16.482 26.1582 16.5121 26.1242 16.5419C26.0902 16.5716 26.0558 16.601 26.0211 16.6298C25.9863 16.6588 25.9512 16.6872 25.9158 16.7153C25.8804 16.7433 25.8446 16.7709 25.8085 16.798C25.7724 16.8252 25.736 16.8519 25.6992 16.8781C25.6624 16.9044 25.6254 16.9302 25.588 16.9556C25.5506 16.9809 25.5129 17.0057 25.4749 17.0301C25.4369 17.0546 25.3986 17.0785 25.36 17.102C25.3214 17.1255 25.2825 17.1484 25.2434 17.1709C25.2043 17.1934 25.1648 17.2154 25.1251 17.237C25.0855 17.2585 25.0455 17.2795 25.0053 17.3001C24.9651 17.3206 24.9247 17.3407 24.884 17.3602C24.8433 17.3798 24.8024 17.3988 24.7612 17.4174C24.72 17.4359 24.6787 17.4539 24.6371 17.4714C24.5955 17.4889 24.5537 17.5059 24.5116 17.5224C24.4696 17.5389 24.4274 17.5549 24.385 17.5704C24.3426 17.5858 24.3 17.6007 24.2572 17.6151C24.2085 17.6311 24.1596 17.6464 24.1105 17.661C24.0614 17.6757 24.0121 17.6896 23.9626 17.7028C23.9131 17.7161 23.8634 17.7286 23.8135 17.7405C23.7637 17.7523 23.7137 17.7635 23.6635 17.7739C23.6134 17.7844 23.5631 17.7941 23.5126 17.8031C23.4622 17.8122 23.4116 17.8205 23.3609 17.8281C23.3103 17.8357 23.2595 17.8426 23.2087 17.8488C23.1578 17.8549 23.1069 17.8604 23.0559 17.8652C23.0048 17.8699 22.9537 17.874 22.9026 17.8773C22.8515 17.8806 22.8003 17.8832 22.7491 17.885C22.6979 17.8869 22.6467 17.8881 22.5955 17.8885C22.5443 17.8889 22.493 17.8887 22.4418 17.8876C22.3906 17.8866 22.3394 17.8849 22.2883 17.8825C22.2371 17.88 22.1859 17.8769 22.1348 17.873C22.0837 17.8691 22.0327 17.8645 21.9818 17.8592C21.9308 17.8539 21.88 17.8479 21.8292 17.8411C21.7784 17.8344 21.7277 17.8269 21.6771 17.8188C21.6265 17.8106 21.5761 17.8017 21.5257 17.7921C21.4754 17.7825 21.4252 17.7723 21.3751 17.7613C21.3251 17.7502 21.2752 17.7385 21.2255 17.7261C21.1758 17.7137 21.1262 17.7006 21.0769 17.6869C21.0275 17.673 20.9784 17.6585 20.9294 17.6434C20.8805 17.6282 20.8317 17.6124 20.7832 17.5958C20.7347 17.5793 20.6865 17.562 20.6384 17.5442C20.5904 17.5262 20.5426 17.5076 20.4951 17.4884C20.4476 17.4692 20.4004 17.4493 20.3534 17.4287C20.3065 17.4081 20.2598 17.3869 20.2134 17.365C20.1671 17.3431 20.121 17.3206 20.0752 17.2974C20.0295 17.2742 19.9841 17.2504 19.939 17.2259C19.894 17.2015 19.8492 17.1764 19.8049 17.1507C19.7605 17.125 19.7165 17.0986 19.6728 17.0717C19.6292 17.0447 19.5859 17.0172 19.5431 16.989C19.1512 16.7298 18.7789 16.3103 18.3599 16.1144C18.2047 16.0417 18.0173 16.0133 17.8543 16.0771C17.6499 16.1572 17.515 16.3538 17.4363 16.5516C17.1904 17.1702 17.2982 18.8024 17.4312 19.4852C17.4622 19.6454 17.5021 19.8033 17.551 19.9589C17.5999 20.1145 17.6574 20.2668 17.7235 20.4158C18.6563 22.5318 20.9711 23.2386 23.1046 23.2998C23.4621 23.31 24.3506 23.2319 24.644 23.362C24.8047 23.4332 24.9363 23.5649 24.9898 23.7344C25.044 23.9061 25.0255 24.1638 24.935 24.321C24.8528 24.4639 24.7027 24.5457 24.5481 24.5863C23.8289 24.7752 21.8568 24.4792 21.075 24.3033C20.7304 24.2257 20.3907 24.0895 20.05 24.0183C19.9968 24.0072 19.9417 24.0043 19.8908 24.0284C19.8271 24.0585 19.8105 24.0819 19.7926 24.1465C20.0357 24.7929 22.0872 26.6196 22.6836 27.2228C22.8409 27.382 22.9958 27.5858 22.987 27.8222C22.9807 27.9901 22.8846 28.1369 22.7653 28.2488C22.6354 28.3707 22.4687 28.4323 22.2908 28.4221C22.1854 28.4162 22.0583 28.3874 21.967 28.3328C21.6652 28.1521 21.3854 27.8256 21.1342 27.5798C20.4234 26.8885 19.745 26.1664 19.0991 25.4136C18.6406 24.8798 18.207 24.3235 17.7413 23.7963C17.5711 23.6037 17.2602 23.2311 16.9817 23.2357C16.814 23.2385 16.7431 23.3905 16.7063 23.5334C16.6008 23.9431 16.6643 24.7344 16.6644 25.1764L16.6701 28.4724C16.6714 28.9234 16.7422 29.6763 16.6153 30.0862C16.586 30.1809 16.5267 30.2519 16.4639 30.3265C16.3586 30.4083 16.2391 30.4638 16.108 30.487C15.9211 30.5201 15.7162 30.4928 15.563 30.373C15.4102 30.2536 15.3352 30.0768 15.3035 29.8894C15.2274 29.4408 15.2874 28.8987 15.2908 28.4406L15.292 25.2889C15.2923 24.745 15.3433 24.1389 15.2711 23.6034C15.2547 23.4818 15.2301 23.3612 15.1179 23.2914C14.984 23.2081 14.7982 23.2522 14.6733 23.3321C14.1689 23.6545 13.2971 24.8446 12.8789 25.3433C12.4627 25.8398 10.2693 28.2782 9.77762 28.4153C9.61448 28.4608 9.35695 28.4003 9.21884 28.3069C9.08924 28.2192 9.01122 28.0626 8.98531 27.911C8.95466 27.7314 8.99775 27.5596 9.09855 27.4098C9.28281 27.1359 9.61002 26.9019 9.85246 26.6724C10.4389 26.1173 11.6424 25.0032 12.0736 24.346C12.1211 24.2735 12.1777 24.1898 12.1592 24.0999C12.0823 24.0342 12.0198 24.0214 11.9195 24.0327C11.5933 24.0696 11.1421 24.2328 10.8061 24.3104C9.9661 24.5043 8.16323 24.7752 7.36756 24.5848C7.11455 24.5243 7.0396 24.4086 6.90641 24.1934C6.89478 24.0406 6.9001 23.8892 6.90427 23.7362C7.00501 23.5719 7.11183 23.399 7.30979 23.3461C7.71306 23.2384 8.23974 23.3053 8.66186 23.3049C9.92278 23.3037 11.2882 23.0486 12.3936 22.4204C13.3617 21.8703 14.1518 20.9607 14.4478 19.8728C14.6214 19.2346 14.8349 16.9859 14.5001 16.4262C14.3555 16.1842 14.1433 16.0892 13.8834 16.0261C13.3296 16.1378 12.8534 16.6811 12.387 16.9934C12.1922 17.1241 11.9899 17.2417 11.78 17.346C11.57 17.4505 11.3543 17.5409 11.1327 17.6173C9.8011 18.0765 8.25529 17.9405 6.99859 17.3161C5.74871 16.6951 4.72074 15.5312 4.27936 14.2007C3.82618 12.8346 3.92409 11.2099 4.57506 9.92428C5.23504 8.62083 6.42322 7.62398 7.77789 7.11322C8.16351 6.96784 8.56129 6.89884 8.94859 6.76851L8.98086 6.75735C9.0993 6.50406 9.17842 6.22824 9.28807 5.96995C9.54658 5.3612 9.89352 4.76059 10.3019 4.24024C11.5764 2.6163 13.3719 1.76134 15.3869 1.52977Z" fill="#85DF62"/>
<path d="M43.5732 17.3506H39.5449L39.5234 14.8799H42.7891C43.3763 14.8799 43.8454 14.8154 44.1963 14.6865C44.5472 14.5505 44.8014 14.3535 44.959 14.0957C45.1237 13.8379 45.2061 13.5156 45.2061 13.1289C45.2061 12.6849 45.1237 12.3268 44.959 12.0547C44.7943 11.7826 44.5329 11.5856 44.1748 11.4639C43.8239 11.335 43.3691 11.2705 42.8105 11.2705H40.9629V24H37.1924V8.35938H42.8105C43.7773 8.35938 44.6403 8.44889 45.3994 8.62793C46.1585 8.7998 46.8031 9.06478 47.333 9.42285C47.8701 9.78092 48.2783 10.2321 48.5576 10.7764C48.8369 11.3135 48.9766 11.9473 48.9766 12.6777C48.9766 13.3151 48.8405 13.9131 48.5684 14.4717C48.2962 15.0303 47.8415 15.485 47.2041 15.8359C46.5739 16.1797 45.7109 16.3587 44.6152 16.373L43.5732 17.3506ZM43.4229 24H38.6318L39.9209 21.0996H43.4229C43.9385 21.0996 44.3503 21.0208 44.6582 20.8633C44.9733 20.6986 45.1989 20.4837 45.335 20.2188C45.4782 19.9466 45.5498 19.6458 45.5498 19.3164C45.5498 18.9154 45.4818 18.568 45.3457 18.2744C45.2168 17.9808 45.0091 17.7552 44.7227 17.5977C44.4362 17.4329 44.0531 17.3506 43.5732 17.3506H40.4043L40.4258 14.8799H44.2178L45.0986 15.8682C46.1442 15.8252 46.9714 15.972 47.5801 16.3086C48.196 16.6452 48.6364 17.0892 48.9014 17.6406C49.1663 18.1921 49.2988 18.7686 49.2988 19.3701C49.2988 20.3942 49.0768 21.25 48.6328 21.9375C48.196 22.625 47.5407 23.1406 46.667 23.4844C45.7933 23.8281 44.7119 24 43.4229 24ZM57.2588 21.0781V16.2871C57.2588 15.9577 57.2122 15.6748 57.1191 15.4385C57.026 15.2021 56.8792 15.0195 56.6787 14.8906C56.4782 14.7546 56.2096 14.6865 55.873 14.6865C55.6009 14.6865 55.3682 14.7331 55.1748 14.8262C54.9814 14.9193 54.8346 15.0589 54.7344 15.2451C54.6341 15.4313 54.584 15.6676 54.584 15.9541H50.9639C50.9639 15.417 51.082 14.9193 51.3184 14.4609C51.5618 13.9954 51.9056 13.5908 52.3496 13.2471C52.8008 12.9033 53.3379 12.6383 53.9609 12.4521C54.5911 12.2588 55.293 12.1621 56.0664 12.1621C56.9902 12.1621 57.8138 12.3161 58.5371 12.624C59.2676 12.932 59.8441 13.3939 60.2666 14.0098C60.6891 14.6185 60.9004 15.3848 60.9004 16.3086V21.0674C60.9004 21.8265 60.9434 22.403 61.0293 22.7969C61.1152 23.1836 61.237 23.5238 61.3945 23.8174V24H57.7637C57.5918 23.6419 57.4629 23.2051 57.377 22.6895C57.2982 22.1667 57.2588 21.6296 57.2588 21.0781ZM57.6992 16.8994L57.7207 18.833H56.1201C55.7835 18.833 55.4971 18.8796 55.2607 18.9727C55.0316 19.0658 54.8454 19.1947 54.7021 19.3594C54.5661 19.5169 54.4658 19.696 54.4014 19.8965C54.3441 20.097 54.3154 20.3083 54.3154 20.5303C54.3154 20.7451 54.3656 20.9385 54.4658 21.1104C54.5732 21.2751 54.7165 21.404 54.8955 21.4971C55.0745 21.5902 55.2751 21.6367 55.4971 21.6367C55.8981 21.6367 56.2383 21.5615 56.5176 21.4111C56.804 21.2536 57.0225 21.0638 57.1729 20.8418C57.3232 20.6198 57.3984 20.4121 57.3984 20.2188L58.1934 21.7012C58.0501 21.9876 57.8854 22.2777 57.6992 22.5713C57.5202 22.8649 57.2946 23.137 57.0225 23.3877C56.7575 23.6312 56.4316 23.8317 56.0449 23.9893C55.6582 24.1396 55.1891 24.2148 54.6377 24.2148C53.9215 24.2148 53.2627 24.068 52.6611 23.7744C52.0667 23.4808 51.5905 23.0726 51.2324 22.5498C50.8743 22.0199 50.6953 21.4111 50.6953 20.7236C50.6953 20.1221 50.8027 19.585 51.0176 19.1123C51.2396 18.6396 51.5726 18.2386 52.0166 17.9092C52.4606 17.5798 53.0264 17.3291 53.7139 17.1572C54.4014 16.9854 55.2106 16.8994 56.1416 16.8994H57.6992ZM66.4648 14.8584V24H62.8447V12.377H66.2393L66.4648 14.8584ZM66.0352 17.791L65.1865 17.8125C65.1865 16.9245 65.2939 16.1331 65.5088 15.4385C65.7236 14.7367 66.028 14.1423 66.4219 13.6553C66.8158 13.1683 67.2848 12.7995 67.8291 12.5488C68.3805 12.291 68.9928 12.1621 69.666 12.1621C70.2031 12.1621 70.6937 12.2409 71.1377 12.3984C71.5889 12.556 71.9756 12.8102 72.2979 13.1611C72.6273 13.512 72.8779 13.9775 73.0498 14.5576C73.2288 15.1305 73.3184 15.8395 73.3184 16.6846V24H69.6768V16.6738C69.6768 16.2083 69.6123 15.8538 69.4834 15.6104C69.3545 15.3597 69.1683 15.1878 68.9248 15.0947C68.6813 15.0016 68.3841 14.9551 68.0332 14.9551C67.6608 14.9551 67.3457 15.0267 67.0879 15.1699C66.8301 15.3132 66.6224 15.5137 66.4648 15.7715C66.3145 16.0221 66.2035 16.3193 66.1318 16.6631C66.0674 17.0068 66.0352 17.3828 66.0352 17.791ZM78.8936 22.6357L81.9014 12.377H85.79L81.1172 25.7295C81.0169 26.0231 80.8844 26.3382 80.7197 26.6748C80.555 27.0186 80.3294 27.3444 80.043 27.6523C79.7565 27.9603 79.3877 28.2109 78.9365 28.4043C78.4925 28.5977 77.9411 28.6943 77.2822 28.6943C76.9313 28.6943 76.6735 28.6764 76.5088 28.6406C76.3512 28.612 76.1077 28.5583 75.7783 28.4795V25.8906C75.8714 25.8906 75.9502 25.8906 76.0146 25.8906C76.0863 25.8906 76.165 25.8906 76.251 25.8906C76.6377 25.8906 76.9456 25.8512 77.1748 25.7725C77.4111 25.6937 77.5902 25.5791 77.7119 25.4287C77.8408 25.2783 77.9411 25.0957 78.0127 24.8809L78.8936 22.6357ZM78.1309 12.377L80.4189 20.5088L80.8164 24.3438H78.3887L74.2529 12.377H78.1309ZM92.6006 21.0781V16.2871C92.6006 15.9577 92.554 15.6748 92.4609 15.4385C92.3678 15.2021 92.221 15.0195 92.0205 14.8906C91.82 14.7546 91.5514 14.6865 91.2148 14.6865C90.9427 14.6865 90.71 14.7331 90.5166 14.8262C90.3232 14.9193 90.1764 15.0589 90.0762 15.2451C89.9759 15.4313 89.9258 15.6676 89.9258 15.9541H86.3057C86.3057 15.417 86.4238 14.9193 86.6602 14.4609C86.9036 13.9954 87.2474 13.5908 87.6914 13.2471C88.1426 12.9033 88.6797 12.6383 89.3027 12.4521C89.9329 12.2588 90.6348 12.1621 91.4082 12.1621C92.332 12.1621 93.1556 12.3161 93.8789 12.624C94.6094 12.932 95.1859 13.3939 95.6084 14.0098C96.0309 14.6185 96.2422 15.3848 96.2422 16.3086V21.0674C96.2422 21.8265 96.2852 22.403 96.3711 22.7969C96.457 23.1836 96.5788 23.5238 96.7363 23.8174V24H93.1055C92.9336 23.6419 92.8047 23.2051 92.7188 22.6895C92.64 22.1667 92.6006 21.6296 92.6006 21.0781ZM93.041 16.8994L93.0625 18.833H91.4619C91.1253 18.833 90.8389 18.8796 90.6025 18.9727C90.3734 19.0658 90.1872 19.1947 90.0439 19.3594C89.9079 19.5169 89.8076 19.696 89.7432 19.8965C89.6859 20.097 89.6572 20.3083 89.6572 20.5303C89.6572 20.7451 89.7074 20.9385 89.8076 21.1104C89.915 21.2751 90.0583 21.404 90.2373 21.4971C90.4163 21.5902 90.6169 21.6367 90.8389 21.6367C91.2399 21.6367 91.5801 21.5615 91.8594 21.4111C92.1458 21.2536 92.3643 21.0638 92.5146 20.8418C92.665 20.6198 92.7402 20.4121 92.7402 20.2188L93.5352 21.7012C93.3919 21.9876 93.2272 22.2777 93.041 22.5713C92.862 22.8649 92.6364 23.137 92.3643 23.3877C92.0993 23.6312 91.7734 23.8317 91.3867 23.9893C91 24.1396 90.5309 24.2148 89.9795 24.2148C89.2633 24.2148 88.6045 24.068 88.0029 23.7744C87.4085 23.4808 86.9323 23.0726 86.5742 22.5498C86.2161 22.0199 86.0371 21.4111 86.0371 20.7236C86.0371 20.1221 86.1445 19.585 86.3594 19.1123C86.5814 18.6396 86.9144 18.2386 87.3584 17.9092C87.8024 17.5798 88.3682 17.3291 89.0557 17.1572C89.7432 16.9854 90.5524 16.8994 91.4834 16.8994H93.041ZM101.807 14.8584V24H98.1865V12.377H101.581L101.807 14.8584ZM101.377 17.791L100.528 17.8125C100.528 16.9245 100.636 16.1331 100.851 15.4385C101.065 14.7367 101.37 14.1423 101.764 13.6553C102.158 13.1683 102.627 12.7995 103.171 12.5488C103.722 12.291 104.335 12.1621 105.008 12.1621C105.545 12.1621 106.035 12.2409 106.479 12.3984C106.931 12.556 107.317 12.8102 107.64 13.1611C107.969 13.512 108.22 13.9775 108.392 14.5576C108.571 15.1305 108.66 15.8395 108.66 16.6846V24H105.019V16.6738C105.019 16.2083 104.954 15.8538 104.825 15.6104C104.696 15.3597 104.51 15.1878 104.267 15.0947C104.023 15.0016 103.726 14.9551 103.375 14.9551C103.003 14.9551 102.688 15.0267 102.43 15.1699C102.172 15.3132 101.964 15.5137 101.807 15.7715C101.656 16.0221 101.545 16.3193 101.474 16.6631C101.409 17.0068 101.377 17.3828 101.377 17.791ZM115.911 24H112.366L112.388 22.8721H115.911C117.035 22.8721 118.002 22.6214 118.812 22.1201C119.628 21.6117 120.258 20.9098 120.702 20.0146C121.146 19.1195 121.368 18.0811 121.368 16.8994V15.4385C121.368 14.5361 121.239 13.7197 120.981 12.9893C120.731 12.2588 120.369 11.6357 119.896 11.1201C119.424 10.5973 118.858 10.1963 118.199 9.91699C117.548 9.6377 116.817 9.49805 116.008 9.49805H112.302V8.35938H116.008C116.982 8.35938 117.873 8.52767 118.683 8.86426C119.499 9.19368 120.204 9.6735 120.799 10.3037C121.4 10.9268 121.862 11.6751 122.185 12.5488C122.514 13.4225 122.679 14.3965 122.679 15.4707V16.8994C122.679 17.9736 122.514 18.9476 122.185 19.8213C121.862 20.695 121.4 21.4434 120.799 22.0664C120.197 22.6895 119.485 23.1693 118.661 23.5059C117.838 23.8353 116.921 24 115.911 24ZM112.957 8.35938V24H111.636V8.35938H112.957ZM125.042 18.3711V18.0166C125.042 17.1715 125.164 16.391 125.407 15.6748C125.651 14.9587 125.998 14.3392 126.449 13.8164C126.908 13.2936 127.455 12.889 128.093 12.6025C128.73 12.3089 129.439 12.1621 130.22 12.1621C131.007 12.1621 131.72 12.3089 132.357 12.6025C132.995 12.889 133.543 13.2936 134.001 13.8164C134.459 14.3392 134.81 14.9587 135.054 15.6748C135.297 16.391 135.419 17.1715 135.419 18.0166V18.3711C135.419 19.2161 135.297 19.9967 135.054 20.7129C134.81 21.4219 134.459 22.0378 134.001 22.5605C133.55 23.0833 133.006 23.4915 132.368 23.7852C131.731 24.0716 131.022 24.2148 130.241 24.2148C129.453 24.2148 128.741 24.0716 128.104 23.7852C127.466 23.4915 126.918 23.0833 126.46 22.5605C126.002 22.0378 125.651 21.4219 125.407 20.7129C125.164 19.9967 125.042 19.2161 125.042 18.3711ZM126.32 18.0166V18.3711C126.32 19.0085 126.406 19.6136 126.578 20.1865C126.75 20.7523 127.001 21.2572 127.33 21.7012C127.66 22.138 128.068 22.4818 128.555 22.7324C129.042 22.9831 129.604 23.1084 130.241 23.1084C130.871 23.1084 131.426 22.9831 131.906 22.7324C132.393 22.4818 132.801 22.138 133.131 21.7012C133.46 21.2572 133.707 20.7523 133.872 20.1865C134.044 19.6136 134.13 19.0085 134.13 18.3711V18.0166C134.13 17.3864 134.044 16.7884 133.872 16.2227C133.707 15.6569 133.457 15.152 133.12 14.708C132.791 14.264 132.382 13.9131 131.896 13.6553C131.409 13.3975 130.85 13.2686 130.22 13.2686C129.59 13.2686 129.031 13.3975 128.544 13.6553C128.064 13.9131 127.656 14.264 127.319 14.708C126.99 15.152 126.739 15.6569 126.567 16.2227C126.403 16.7884 126.32 17.3864 126.32 18.0166ZM142.369 23.1084C142.913 23.1084 143.422 23.0081 143.895 22.8076C144.374 22.5999 144.768 22.2956 145.076 21.8945C145.391 21.4863 145.57 20.9886 145.613 20.4014H146.838C146.802 21.139 146.576 21.7979 146.161 22.3779C145.753 22.9508 145.216 23.402 144.55 23.7314C143.891 24.0537 143.164 24.2148 142.369 24.2148C141.56 24.2148 140.844 24.068 140.221 23.7744C139.605 23.4808 139.089 23.0726 138.674 22.5498C138.258 22.0199 137.943 21.404 137.729 20.7021C137.521 19.9932 137.417 19.2305 137.417 18.4141V17.9629C137.417 17.1465 137.521 16.3874 137.729 15.6855C137.943 14.9766 138.258 14.3607 138.674 13.8379C139.089 13.3079 139.605 12.8962 140.221 12.6025C140.837 12.3089 141.549 12.1621 142.358 12.1621C143.189 12.1621 143.934 12.3304 144.593 12.667C145.259 13.0036 145.789 13.4798 146.183 14.0957C146.584 14.7116 146.802 15.4421 146.838 16.2871H145.613C145.577 15.6641 145.413 15.127 145.119 14.6758C144.826 14.2246 144.439 13.8773 143.959 13.6338C143.479 13.3903 142.946 13.2686 142.358 13.2686C141.7 13.2686 141.137 13.3975 140.672 13.6553C140.206 13.9059 139.827 14.2533 139.533 14.6973C139.247 15.1341 139.035 15.6354 138.899 16.2012C138.763 16.7598 138.695 17.347 138.695 17.9629V18.4141C138.695 19.0371 138.76 19.6315 138.889 20.1973C139.025 20.7559 139.236 21.2536 139.522 21.6904C139.816 22.1273 140.196 22.4746 140.661 22.7324C141.134 22.9831 141.703 23.1084 142.369 23.1084ZM156.388 21.0352C156.388 20.7201 156.309 20.4085 156.151 20.1006C155.994 19.7926 155.689 19.5098 155.238 19.252C154.794 18.9941 154.139 18.7757 153.272 18.5967C152.628 18.4535 152.051 18.2923 151.543 18.1133C151.042 17.9342 150.619 17.7194 150.275 17.4688C149.932 17.2181 149.67 16.9173 149.491 16.5664C149.312 16.2155 149.223 15.8001 149.223 15.3203C149.223 14.8906 149.316 14.486 149.502 14.1064C149.695 13.7197 149.967 13.3831 150.318 13.0967C150.676 12.8031 151.106 12.5739 151.607 12.4092C152.116 12.2445 152.685 12.1621 153.315 12.1621C154.211 12.1621 154.977 12.3161 155.614 12.624C156.259 12.9248 156.749 13.3366 157.086 13.8594C157.43 14.3822 157.602 14.973 157.602 15.6318H156.323C156.323 15.2308 156.205 14.8512 155.969 14.4932C155.74 14.1351 155.399 13.8415 154.948 13.6123C154.504 13.3831 153.96 13.2686 153.315 13.2686C152.649 13.2686 152.109 13.3688 151.693 13.5693C151.278 13.7699 150.974 14.0241 150.78 14.332C150.594 14.64 150.501 14.9587 150.501 15.2881C150.501 15.5459 150.54 15.7822 150.619 15.9971C150.705 16.2048 150.855 16.3981 151.07 16.5771C151.292 16.7562 151.607 16.9245 152.016 17.082C152.424 17.2396 152.954 17.3936 153.605 17.5439C154.544 17.7516 155.31 18.0059 155.904 18.3066C156.506 18.6003 156.95 18.9655 157.236 19.4023C157.523 19.832 157.666 20.3548 157.666 20.9707C157.666 21.4505 157.566 21.891 157.365 22.292C157.165 22.6859 156.875 23.026 156.495 23.3125C156.123 23.599 155.672 23.821 155.142 23.9785C154.619 24.1361 154.032 24.2148 153.38 24.2148C152.399 24.2148 151.568 24.0537 150.888 23.7314C150.215 23.402 149.702 22.9723 149.352 22.4424C149.008 21.9053 148.836 21.3359 148.836 20.7344H150.114C150.157 21.3359 150.347 21.8122 150.684 22.1631C151.02 22.5068 151.432 22.7503 151.919 22.8936C152.413 23.0368 152.9 23.1084 153.38 23.1084C154.039 23.1084 154.59 23.0117 155.034 22.8184C155.478 22.625 155.815 22.3708 156.044 22.0557C156.273 21.7406 156.388 21.4004 156.388 21.0352Z" fill="white"/>
</svg>
